<svg width="21" height="21" viewBox="0 0 21 21" fill="none" xmlns="http://www.w3.org/2000/svg">
<path d="M11.375 7C12.0712 7 12.7389 7.27656 13.2312 7.76884C13.7234 8.26113 14 8.92881 14 9.625C14 9.85706 14.0922 10.0796 14.2563 10.2437C14.4204 10.4078 14.6429 10.5 14.875 10.5C15.1071 10.5 15.3296 10.4078 15.4937 10.2437C15.6578 10.0796 15.75 9.85706 15.75 9.625C15.75 8.46468 15.2891 7.35188 14.4686 6.53141C13.6481 5.71094 12.5353 5.25 11.375 5.25C11.1429 5.25 10.9204 5.34219 10.7563 5.50628C10.5922 5.67038 10.5 5.89294 10.5 6.125C10.5 6.35706 10.5922 6.57962 10.7563 6.74372C10.9204 6.90781 11.1429 7 11.375 7Z" fill="#004990"/>
<path d="M11.375 3.5C12.9995 3.5 14.5574 4.14531 15.706 5.29397C16.8547 6.44263 17.5 8.00055 17.5 9.625C17.5 9.85707 17.5922 10.0796 17.7563 10.2437C17.9204 10.4078 18.1429 10.5 18.375 10.5C18.6071 10.5 18.8296 10.4078 18.9937 10.2437C19.1578 10.0796 19.25 9.85707 19.25 9.625C19.25 7.53642 18.4203 5.53338 16.9435 4.05653C15.4666 2.57969 13.4636 1.75 11.375 1.75C11.1429 1.75 10.9204 1.84219 10.7563 2.00628C10.5922 2.17038 10.5 2.39294 10.5 2.625C10.5 2.85706 10.5922 3.07962 10.7563 3.24372C10.9204 3.40781 11.1429 3.5 11.375 3.5ZM19.0312 13.9213C18.9831 13.7808 18.9 13.6549 18.7898 13.5554C18.6796 13.4559 18.5459 13.3861 18.4013 13.3525L13.1512 12.1538C13.0087 12.1214 12.8604 12.1253 12.7198 12.1651C12.5792 12.2048 12.4508 12.2791 12.3462 12.3813C12.2238 12.495 12.215 12.5038 11.6463 13.5888C9.75905 12.7191 8.24687 11.2008 7.385 9.31C8.49625 8.75 8.505 8.75 8.61875 8.61875C8.72087 8.51424 8.79519 8.38581 8.83493 8.2452C8.87467 8.10458 8.87856 7.95626 8.84625 7.81375L7.6475 2.625C7.61394 2.48036 7.54413 2.34664 7.44463 2.23642C7.34513 2.12621 7.21922 2.04313 7.07875 1.995C6.87441 1.92202 6.6634 1.86926 6.44875 1.8375C6.2276 1.78622 6.00192 1.75691 5.775 1.75C4.7075 1.75 3.68373 2.17406 2.9289 2.9289C2.17406 3.68373 1.75 4.7075 1.75 5.775C1.75463 9.34737 3.1758 12.7721 5.70185 15.2982C8.2279 17.8242 11.6526 19.2454 15.225 19.25C15.7536 19.25 16.277 19.1459 16.7653 18.9436C17.2536 18.7413 17.6973 18.4449 18.0711 18.0711C18.4449 17.6974 18.7413 17.2536 18.9436 16.7653C19.1459 16.277 19.25 15.7536 19.25 15.225C19.2503 15.0023 19.2327 14.7799 19.1975 14.56C19.1607 14.3427 19.1051 14.1289 19.0312 13.9213Z" fill="#004990"/>
</svg>
